<svg version="1.1" id="Layer_1" xmlns="http://www.w3.org/2000/svg" xmlns:xlink="http://www.w3.org/1999/xlink" x="0px" y="0px"
	 width="100%" viewBox="0 0 1120 188" enable-background="new 0 0 1120 188" xml:space="preserve">
<path fill="#FEFEFE" opacity="1.000000" stroke="none" 
	d="
M832.000000,189.000000 
	C554.666687,189.000000 277.833435,189.000000 1.000111,189.000000 
	C1.000074,126.333397 1.000074,63.666790 1.000037,1.000137 
	C374.333221,1.000091 747.666443,1.000091 1120.999756,1.000046 
	C1120.999756,63.666531 1120.999756,126.333061 1120.999878,188.999786 
	C1024.833374,189.000000 928.666687,189.000000 832.000000,189.000000 
M694.500000,93.039772 
	C674.841370,93.039764 655.182800,93.039764 635.524170,93.039764 
	C623.008240,93.039772 623.008240,93.039772 623.008240,80.604713 
	C623.008240,69.153748 623.008240,57.702789 623.008240,45.490337 
	C662.574768,45.490337 701.606567,45.490337 740.878174,45.490337 
	C740.878174,37.312702 740.878174,29.905584 740.878174,22.193384 
	C692.693176,22.193384 644.809692,22.193384 596.789673,22.193384 
	C596.789673,77.083054 596.789673,131.763458 596.789673,186.759338 
	C599.064575,186.759338 600.883301,186.759338 602.702026,186.759338 
	C646.684082,186.759399 690.666077,186.759460 734.648132,186.759583 
	C735.481140,186.759583 736.320740,186.692841 737.145874,186.773697 
	C740.153687,187.068466 741.336792,185.793213 741.222778,182.739822 
	C741.048828,178.081589 740.888611,173.388626 741.261963,168.753860 
	C741.633484,164.141235 740.043640,162.860641 735.423218,162.885071 
	C699.938660,163.072647 664.452759,162.988052 628.967224,162.987930 
	C627.187744,162.987915 625.408325,162.987900 623.322449,162.987900 
	C623.322449,147.337997 623.322449,132.291016 623.322449,116.491859 
	C661.963562,116.491859 700.315674,116.491859 738.683350,116.491859 
	C738.683350,108.322517 738.683350,100.909492 738.683350,93.039780 
	C724.081604,93.039780 709.790833,93.039780 694.500000,93.039772 
M327.499939,116.678642 
	C339.329407,116.677986 351.158936,116.700432 362.988220,116.654503 
	C365.020935,116.646614 367.645874,117.324730 367.644104,113.827774 
	C367.640686,107.048965 367.643097,100.270149 367.643097,93.041885 
	C365.225647,93.041885 363.427521,93.041901 361.629395,93.041885 
	C326.639984,93.041542 291.650360,92.986969 256.661438,93.118057 
	C252.827072,93.132416 251.393265,92.217453 251.470673,88.139420 
	C251.710922,75.481133 251.547028,62.815380 251.578506,50.152618 
	C251.582062,48.726597 251.831833,47.301182 251.996979,45.564941 
	C254.272858,45.564941 256.084473,45.564934 257.896118,45.564945 
	C292.718903,45.565178 327.541718,45.566086 362.364502,45.563362 
	C363.863708,45.563244 365.479706,45.869728 366.826172,45.407116 
	C367.960602,45.017342 369.581177,43.743816 369.613800,42.813362 
	C369.851379,36.035435 369.741638,29.245338 369.741638,22.296982 
	C321.138794,22.296982 273.121857,22.296982 225.310059,22.296982 
	C225.310059,77.249817 225.310059,131.793716 225.310059,186.194168 
	C226.035477,186.452286 226.342789,186.657211 226.650284,186.657501 
	C273.134094,186.701462 319.617981,186.717972 366.101715,186.791016 
	C368.974152,186.795532 369.880432,185.552368 369.802460,182.844315 
	C369.673035,178.349426 369.459961,173.820908 369.852539,169.356705 
	C370.287048,164.415634 368.822205,162.821594 363.571198,162.858902 
	C328.250305,163.109955 292.926819,162.989594 257.604156,162.989548 
	C255.820251,162.989548 254.036362,162.989532 252.055649,162.989532 
	C252.055649,147.260986 252.055649,132.093933 252.055649,116.678459 
	C277.201691,116.678459 301.850800,116.678459 327.499939,116.678642 
M565.247131,101.500046 
	C565.247131,75.093063 565.247131,48.686073 565.247131,21.892769 
	C560.977661,21.892769 557.459900,22.238667 554.039368,21.809700 
	C549.207703,21.203766 545.979553,23.248653 542.750793,26.545156 
	C531.677551,37.850788 520.310791,48.868160 509.172546,60.111031 
	C500.170837,69.197311 491.337341,78.450249 482.220551,87.844307 
	C480.190948,85.915863 478.982513,84.817055 477.828522,83.663788 
	C458.502228,64.349609 439.197021,45.014320 419.833557,25.737505 
	C418.351501,24.262051 416.550629,22.262909 414.756012,22.103306 
	C409.347412,21.622293 403.868683,21.929762 398.192657,21.929762 
	C398.192657,77.017136 398.192657,131.568985 398.192657,186.752380 
	C404.916138,186.752380 411.385803,186.437012 417.807892,186.854218 
	C422.764404,187.176208 424.350891,185.850327 424.314331,180.579681 
	C424.063232,144.423111 424.181976,108.263985 424.181610,72.105675 
	C424.181580,70.409897 424.181580,68.714119 424.181580,67.018341 
	C424.605042,66.896820 425.028503,66.775307 425.451965,66.653786 
	C444.029541,84.475395 462.607117,102.297012 481.557220,120.475998 
	C500.494415,102.315147 519.133850,84.439827 538.657593,65.716492 
	C538.789612,68.684624 538.920959,70.267281 538.921448,71.849968 
	C538.932617,108.341530 539.010559,144.833496 538.825867,181.324127 
	C538.803040,185.841187 540.171204,187.134521 544.502991,186.836914 
	C549.644226,186.483704 554.844299,186.502777 559.988770,186.831238 
	C564.182983,187.098999 565.359619,185.629791 565.332825,181.481232 
	C565.162842,155.155090 565.247009,128.827301 565.247131,101.500046 
M81.894966,114.395271 
	C76.793663,119.607880 71.692352,124.820480 66.591049,130.033081 
	C66.157753,129.736740 65.724457,129.440399 65.291161,129.144058 
	C65.291161,93.569237 65.291161,57.994419 65.291161,22.211063 
	C56.269360,22.211063 47.713097,22.211063 39.104935,22.211063 
	C39.104935,77.097084 39.104935,131.665192 39.104935,186.497253 
	C47.850933,186.497253 56.264008,186.497253 65.216492,186.497253 
	C65.216492,181.191544 64.806145,176.031601 65.370346,170.980499 
	C65.708946,167.949203 66.831657,164.384995 68.858833,162.258469 
	C89.782379,140.309433 110.959015,118.601601 132.080338,96.841324 
	C133.284210,95.601021 134.619980,94.488716 136.171112,93.062347 
	C137.057571,94.686783 137.686035,95.650993 138.136917,96.692108 
	C149.118607,122.049431 160.160309,147.381210 171.016129,172.792389 
	C176.952805,186.688904 176.808441,186.750565 191.723770,186.750565 
	C196.438156,186.750565 201.152542,186.750580 206.360580,186.750580 
	C205.712799,185.091599 205.496735,184.479538 205.238647,183.885712 
	C189.710785,148.157715 174.224213,112.411575 158.576279,76.736221 
	C157.080093,73.325081 157.329147,71.174438 160.056213,68.487709 
	C169.194153,59.484940 178.044937,50.190250 186.984619,40.986877 
	C192.845535,34.953060 198.670105,28.883932 205.414536,21.894159 
	C195.187805,21.894159 186.257431,22.056042 177.338074,21.812943 
	C173.864105,21.718258 171.468918,22.818224 169.076797,25.274540 
	C140.247040,54.877960 111.323265,84.389801 81.894966,114.395271 
M945.242126,21.890627 
	C936.696716,21.890627 928.151306,21.890627 918.707886,21.890627 
	C920.230774,23.836842 921.002319,24.873512 921.825439,25.867481 
	C942.429077,50.747498 962.993652,75.660133 983.707581,100.447937 
	C986.051514,103.252747 986.308105,104.927750 983.787903,107.912354 
	C963.053772,132.467850 942.526001,157.197632 921.950317,181.886780 
	C920.879456,183.171677 919.941650,184.567444 918.312805,186.757324 
	C927.888916,186.757324 936.182617,186.603699 944.465820,186.832413 
	C947.811279,186.924774 949.999512,185.817276 952.104187,183.263947 
	C965.237061,167.331726 978.507019,151.512497 991.752502,135.673294 
	C995.119629,131.646790 998.562256,127.683434 1002.132935,123.500404 
	C1003.488098,125.047401 1004.382263,126.020943 1005.224854,127.037216 
	C1019.466614,144.215103 1033.985596,161.174942 1047.784546,178.701584 
	C1052.607666,184.827530 1057.553711,187.723038 1065.381836,186.899811 
	C1072.041504,186.199478 1078.833496,186.755173 1086.431030,186.755173 
	C1085.246338,185.080963 1084.748657,184.274033 1084.151733,183.548813 
	C1063.307495,158.223251 1042.519287,132.850708 1021.517517,107.656349 
	C1018.910095,104.528366 1019.103455,102.804352 1021.630066,99.804710 
	C1042.440674,75.098808 1063.061768,50.233231 1083.724976,25.403261 
	C1084.496094,24.476625 1085.109741,23.418896 1086.163330,21.890558 
	C1077.243774,21.890558 1069.090454,22.063993 1060.950073,21.814180 
	C1057.131470,21.696995 1054.501831,22.795738 1052.031616,25.830149 
	C1040.995972,39.386967 1029.729126,52.755856 1018.523682,66.174149 
	C1013.334839,72.387718 1008.095215,78.558952 1002.433350,85.277794 
	C1001.413330,83.925591 1000.841187,83.109512 1000.211243,82.340813 
	C985.014893,63.794964 969.810120,45.255966 954.613586,26.710281 
	C952.407959,24.018524 950.453613,20.918106 945.242126,21.890627 
M827.500000,21.885109 
	C805.404907,21.885109 783.309814,21.885109 761.131958,21.885109 
	C761.131958,29.984316 761.131958,37.417934 761.131958,45.628593 
	C781.216919,45.628593 801.068970,45.628593 821.186035,45.628593 
	C821.186035,48.053951 821.186035,49.700790 821.186035,51.347630 
	C821.185913,92.664268 821.185608,133.980911 821.186035,175.297546 
	C821.186096,177.963120 820.920471,180.669266 821.311096,183.276703 
	C821.498779,184.529755 822.897217,186.564590 823.803650,186.595581 
	C831.560364,186.860764 839.329956,186.747620 847.712036,186.747620 
	C847.712036,139.441666 847.712036,92.740532 847.712036,45.440536 
	C868.081604,45.440536 887.830566,45.440536 907.755859,45.440536 
	C907.755859,37.294800 907.755859,29.758160 907.755859,21.885080 
	C881.101807,21.885080 854.800903,21.885080 827.500000,21.885109 
z"/>
<path fill="#28667D" opacity="1.000000" stroke="none" 
	d="
M695.000000,93.039780 
	C709.790833,93.039780 724.081604,93.039780 738.683350,93.039780 
	C738.683350,100.909492 738.683350,108.322517 738.683350,116.491859 
	C700.315674,116.491859 661.963562,116.491859 623.322449,116.491859 
	C623.322449,132.291016 623.322449,147.337997 623.322449,162.987900 
	C625.408325,162.987900 627.187744,162.987915 628.967224,162.987930 
	C664.452759,162.988052 699.938660,163.072647 735.423218,162.885071 
	C740.043640,162.860641 741.633484,164.141235 741.261963,168.753860 
	C740.888611,173.388626 741.048828,178.081589 741.222778,182.739822 
	C741.336792,185.793213 740.153687,187.068466 737.145874,186.773697 
	C736.320740,186.692841 735.481140,186.759583 734.648132,186.759583 
	C690.666077,186.759460 646.684082,186.759399 602.702026,186.759338 
	C600.883301,186.759338 599.064575,186.759338 596.789673,186.759338 
	C596.789673,131.763458 596.789673,77.083054 596.789673,22.193384 
	C644.809692,22.193384 692.693176,22.193384 740.878174,22.193384 
	C740.878174,29.905584 740.878174,37.312702 740.878174,45.490337 
	C701.606567,45.490337 662.574768,45.490337 623.008240,45.490337 
	C623.008240,57.702789 623.008240,69.153748 623.008240,80.604713 
	C623.008240,93.039772 623.008240,93.039772 635.524170,93.039764 
	C655.182800,93.039764 674.841370,93.039764 695.000000,93.039780 
z"/>
<path fill="#27667C" opacity="1.000000" stroke="none" 
	d="
M326.999939,116.678551 
	C301.850800,116.678459 277.201691,116.678459 252.055649,116.678459 
	C252.055649,132.093933 252.055649,147.260986 252.055649,162.989532 
	C254.036362,162.989532 255.820251,162.989548 257.604156,162.989548 
	C292.926819,162.989594 328.250305,163.109955 363.571198,162.858902 
	C368.822205,162.821594 370.287048,164.415634 369.852539,169.356705 
	C369.459961,173.820908 369.673035,178.349426 369.802460,182.844315 
	C369.880432,185.552368 368.974152,186.795532 366.101715,186.791016 
	C319.617981,186.717972 273.134094,186.701462 226.650284,186.657501 
	C226.342789,186.657211 226.035477,186.452286 225.310059,186.194168 
	C225.310059,131.793716 225.310059,77.249817 225.310059,22.296982 
	C273.121857,22.296982 321.138794,22.296982 369.741638,22.296982 
	C369.741638,29.245338 369.851379,36.035435 369.613800,42.813362 
	C369.581177,43.743816 367.960602,45.017342 366.826172,45.407116 
	C365.479706,45.869728 363.863708,45.563244 362.364502,45.563362 
	C327.541718,45.566086 292.718903,45.565178 257.896118,45.564945 
	C256.084473,45.564934 254.272858,45.564941 251.996979,45.564941 
	C251.831833,47.301182 251.582062,48.726597 251.578506,50.152618 
	C251.547028,62.815380 251.710922,75.481133 251.470673,88.139420 
	C251.393265,92.217453 252.827072,93.132416 256.661438,93.118057 
	C291.650360,92.986969 326.639984,93.041542 361.629395,93.041885 
	C363.427521,93.041901 365.225647,93.041885 367.643097,93.041885 
	C367.643097,100.270149 367.640686,107.048965 367.644104,113.827774 
	C367.645874,117.324730 365.020935,116.646614 362.988220,116.654503 
	C351.158936,116.700432 339.329407,116.677986 326.999939,116.678551 
z"/>
<path fill="#26657C" opacity="1.000000" stroke="none" 
	d="
M565.247192,102.000046 
	C565.247009,128.827301 565.162842,155.155090 565.332825,181.481232 
	C565.359619,185.629791 564.182983,187.098999 559.988770,186.831238 
	C554.844299,186.502777 549.644226,186.483704 544.502991,186.836914 
	C540.171204,187.134521 538.803040,185.841187 538.825867,181.324127 
	C539.010559,144.833496 538.932617,108.341530 538.921448,71.849968 
	C538.920959,70.267281 538.789612,68.684624 538.657593,65.716492 
	C519.133850,84.439827 500.494415,102.315147 481.557220,120.475998 
	C462.607117,102.297012 444.029541,84.475395 425.451965,66.653786 
	C425.028503,66.775307 424.605042,66.896820 424.181580,67.018341 
	C424.181580,68.714119 424.181580,70.409897 424.181610,72.105675 
	C424.181976,108.263985 424.063232,144.423111 424.314331,180.579681 
	C424.350891,185.850327 422.764404,187.176208 417.807892,186.854218 
	C411.385803,186.437012 404.916138,186.752380 398.192657,186.752380 
	C398.192657,131.568985 398.192657,77.017136 398.192657,21.929762 
	C403.868683,21.929762 409.347412,21.622293 414.756012,22.103306 
	C416.550629,22.262909 418.351501,24.262051 419.833557,25.737505 
	C439.197021,45.014320 458.502228,64.349609 477.828522,83.663788 
	C478.982513,84.817055 480.190948,85.915863 482.220551,87.844307 
	C491.337341,78.450249 500.170837,69.197311 509.172546,60.111031 
	C520.310791,48.868160 531.677551,37.850788 542.750793,26.545156 
	C545.979553,23.248653 549.207703,21.203766 554.039368,21.809700 
	C557.459900,22.238667 560.977661,21.892769 565.247131,21.892769 
	C565.247131,48.686073 565.247131,75.093063 565.247192,102.000046 
z"/>
<path fill="#25657B" opacity="1.000000" stroke="none" 
	d="
M82.159485,114.160400 
	C111.323265,84.389801 140.247040,54.877960 169.076797,25.274540 
	C171.468918,22.818224 173.864105,21.718258 177.338074,21.812943 
	C186.257431,22.056042 195.187805,21.894159 205.414536,21.894159 
	C198.670105,28.883932 192.845535,34.953060 186.984619,40.986877 
	C178.044937,50.190250 169.194153,59.484940 160.056213,68.487709 
	C157.329147,71.174438 157.080093,73.325081 158.576279,76.736221 
	C174.224213,112.411575 189.710785,148.157715 205.238647,183.885712 
	C205.496735,184.479538 205.712799,185.091599 206.360580,186.750580 
	C201.152542,186.750580 196.438156,186.750565 191.723770,186.750565 
	C176.808441,186.750565 176.952805,186.688904 171.016129,172.792389 
	C160.160309,147.381210 149.118607,122.049431 138.136917,96.692108 
	C137.686035,95.650993 137.057571,94.686783 136.171112,93.062347 
	C134.619980,94.488716 133.284210,95.601021 132.080338,96.841324 
	C110.959015,118.601601 89.782379,140.309433 68.858833,162.258469 
	C66.831657,164.384995 65.708946,167.949203 65.370346,170.980499 
	C64.806145,176.031601 65.216492,181.191544 65.216492,186.497253 
	C56.264008,186.497253 47.850933,186.497253 39.104935,186.497253 
	C39.104935,131.665192 39.104935,77.097084 39.104935,22.211063 
	C47.713097,22.211063 56.269360,22.211063 65.291161,22.211063 
	C65.291161,57.994419 65.291161,93.569237 65.291161,129.144058 
	C65.724457,129.440399 66.157753,129.736740 66.591049,130.033081 
	C71.692352,124.820480 76.793663,119.607880 82.159485,114.160400 
z"/>
<path fill="#26657C" opacity="1.000000" stroke="none" 
	d="
M945.703857,21.890900 
	C950.453613,20.918106 952.407959,24.018524 954.613586,26.710281 
	C969.810120,45.255966 985.014893,63.794964 1000.211243,82.340813 
	C1000.841187,83.109512 1001.413330,83.925591 1002.433350,85.277794 
	C1008.095215,78.558952 1013.334839,72.387718 1018.523682,66.174149 
	C1029.729126,52.755856 1040.995972,39.386967 1052.031616,25.830149 
	C1054.501831,22.795738 1057.131470,21.696995 1060.950073,21.814180 
	C1069.090454,22.063993 1077.243774,21.890558 1086.163330,21.890558 
	C1085.109741,23.418896 1084.496094,24.476625 1083.724976,25.403261 
	C1063.061768,50.233231 1042.440674,75.098808 1021.630066,99.804710 
	C1019.103455,102.804352 1018.910095,104.528366 1021.517517,107.656349 
	C1042.519287,132.850708 1063.307495,158.223251 1084.151733,183.548813 
	C1084.748657,184.274033 1085.246338,185.080963 1086.431030,186.755173 
	C1078.833496,186.755173 1072.041504,186.199478 1065.381836,186.899811 
	C1057.553711,187.723038 1052.607666,184.827530 1047.784546,178.701584 
	C1033.985596,161.174942 1019.466614,144.215103 1005.224854,127.037216 
	C1004.382263,126.020943 1003.488098,125.047401 1002.132935,123.500404 
	C998.562256,127.683434 995.119629,131.646790 991.752502,135.673294 
	C978.507019,151.512497 965.237061,167.331726 952.104187,183.263947 
	C949.999512,185.817276 947.811279,186.924774 944.465820,186.832413 
	C936.182617,186.603699 927.888916,186.757324 918.312805,186.757324 
	C919.941650,184.567444 920.879456,183.171677 921.950317,181.886780 
	C942.526001,157.197632 963.053772,132.467850 983.787903,107.912354 
	C986.308105,104.927750 986.051514,103.252747 983.707581,100.447937 
	C962.993652,75.660133 942.429077,50.747498 921.825439,25.867481 
	C921.002319,24.873512 920.230774,23.836842 918.707886,21.890627 
	C928.151306,21.890627 936.696716,21.890627 945.703857,21.890900 
z"/>
<path fill="#28677D" opacity="1.000000" stroke="none" 
	d="
M828.000000,21.885094 
	C854.800903,21.885080 881.101807,21.885080 907.755859,21.885080 
	C907.755859,29.758160 907.755859,37.294800 907.755859,45.440536 
	C887.830566,45.440536 868.081604,45.440536 847.712036,45.440536 
	C847.712036,92.740532 847.712036,139.441666 847.712036,186.747620 
	C839.329956,186.747620 831.560364,186.860764 823.803650,186.595581 
	C822.897217,186.564590 821.498779,184.529755 821.311096,183.276703 
	C820.920471,180.669266 821.186096,177.963120 821.186035,175.297546 
	C821.185608,133.980911 821.185913,92.664268 821.186035,51.347630 
	C821.186035,49.700790 821.186035,48.053951 821.186035,45.628593 
	C801.068970,45.628593 781.216919,45.628593 761.131958,45.628593 
	C761.131958,37.417934 761.131958,29.984316 761.131958,21.885109 
	C783.309814,21.885109 805.404907,21.885109 828.000000,21.885094 
z"/>
</svg>