<?xml version="1.0" encoding="UTF-8"?>
<svg version="1.1" xmlns="http://www.w3.org/2000/svg" width="68" height="75">
<path d="M0 0 C22.44 0 44.88 0 68 0 C68 24.75 68 49.5 68 75 C45.56 75 23.12 75 0 75 C0 50.25 0 25.5 0 0 Z " fill="#FDFDFC" transform="translate(0,0)"/>
<path d="M0 0 C0 1.32 0 2.64 0 4 C0.86625 4.185625 0.86625 4.185625 1.75 4.375 C4.02335767 5.00648824 5.9253529 5.88858191 8 7 C8 6.34 8 5.68 8 5 C12.29 5 16.58 5 21 5 C21.061875 5.99 21.12375 6.98 21.1875 8 C21.73740959 12.09932604 23.58723298 14.86860195 25.94140625 18.203125 C27 20 27 20 27 23 C30.49971376 24.65264261 32.30642186 25.18722155 36 24 C37 25 37 25 37.375 27.27734375 C36.84267245 31.14226355 34.97064253 32.12409759 32 34.5625 C28.03347015 38.22132519 28.03347015 38.22132519 26.44140625 43.2109375 C26.51385779 46.40658578 26.51385779 46.40658578 26.94140625 49.43359375 C27 52 27 52 25.65234375 53.84765625 C24 55 24 55 22 55 C22 56.98 22 58.96 22 61 C21.38125 61.04125 20.7625 61.0825 20.125 61.125 C19.073125 61.558125 19.073125 61.558125 18 62 C16.81664605 64.88318775 16.81664605 64.88318775 16 68 C15.34 68.99 14.68 69.98 14 71 C11.6171875 71.29296875 11.6171875 71.29296875 8.875 71.1875 C7.96492188 71.16042969 7.05484375 71.13335937 6.1171875 71.10546875 C5.41851562 71.07066406 4.71984375 71.03585938 4 71 C3.66226563 70.18015625 3.32453125 69.3603125 2.9765625 68.515625 C2.30753906 66.89914063 2.30753906 66.89914063 1.625 65.25 C1.18414063 64.18265625 0.74328125 63.1153125 0.2890625 62.015625 C-0.46998803 60.2399068 -1.26839235 58.47868198 -2.15234375 56.76171875 C-3.65631701 53.63594944 -3.19659375 50.786375 -2.375 47.5 C-1.78001236 44.97917781 -1.78001236 44.97917781 -2.9375 42.6875 C-4.40065113 38.98658832 -4.13441749 35.96531605 -4 32 C-5.32 32 -6.64 32 -8 32 C-8 31.34 -8 30.68 -8 30 C-9.03125 30.495 -10.0625 30.99 -11.125 31.5 C-14.57174803 32.95529361 -17.22553093 33.58713963 -21 33 C-23.1875 31.25 -23.1875 31.25 -25 29 C-25.53238281 28.40445312 -26.06476562 27.80890625 -26.61328125 27.1953125 C-28.83463198 23.67869529 -28.12881725 20.70619644 -27.65234375 16.70703125 C-26.67167929 12.63756737 -25.08727375 10.78607631 -22 8 C-21.34 8 -20.68 8 -20 8 C-19.566875 7.071875 -19.566875 7.071875 -19.125 6.125 C-17.46203639 2.98384651 -16.30294182 2.11128475 -12.9375 0.875 C-8.63948844 -0.28564447 -4.41885595 -0.18036147 0 0 Z " fill="#8D4C2D" transform="translate(29,2)"/>
<path d="M0 0 C0 1.32 0 2.64 0 4 C0.86625 4.185625 0.86625 4.185625 1.75 4.375 C4.02335767 5.00648824 5.9253529 5.88858191 8 7 C8 6.34 8 5.68 8 5 C12.29 5 16.58 5 21 5 C21.061875 5.99 21.12375 6.98 21.1875 8 C21.73740959 12.09932604 23.58723298 14.86860195 25.94140625 18.203125 C27 20 27 20 27 23 C30.49971376 24.65264261 32.30642186 25.18722155 36 24 C37 25 37 25 37.37109375 27.25390625 C36.72341342 32.04674069 32.75629867 34.32176587 29.28515625 37.40234375 C26.68952013 40.35293865 26.26436352 42.13579285 26 46 C25.67 46 25.34 46 25 46 C24.397463 39.97463002 24.397463 39.97463002 26.11328125 37.19921875 C27.34621853 35.74400545 28.66808933 34.36520843 30 33 C29.01 32.505 29.01 32.505 28 32 C27.731875 31.236875 27.46375 30.47375 27.1875 29.6875 C25.31580888 25.45156747 22.10988654 23.64126778 18.1875 21.375 C17.465625 20.92125 16.74375 20.4675 16 20 C16 19.34 16 18.68 16 18 C15.43410156 17.76410156 14.86820313 17.52820313 14.28515625 17.28515625 C11.484831 15.71027248 9.64593979 13.7655169 7.4375 11.4375 C4.21673663 7.95762374 4.21673663 7.95762374 0 6 C-1.64886059 7.62192821 -3.2940024 9.24763772 -4.9375 10.875 C-5.85402344 11.77992187 -6.77054688 12.68484375 -7.71484375 13.6171875 C-10.01187627 15.77682255 -10.01187627 15.77682255 -11 18 C-9.700625 17.814375 -8.40125 17.62875 -7.0625 17.4375 C-3.56676594 17.3932502 -2.26994554 17.79004236 0.53125 19.96875 C2.10930753 21.58779604 3.6517762 23.24247794 5.15234375 24.93359375 C6.8351854 27.07120631 6.8351854 27.07120631 9 28 C8.505 29.485 8.505 29.485 8 31 C7.39414062 30.278125 6.78828125 29.55625 6.1640625 28.8125 C0.65220756 22.40737453 0.65220756 22.40737453 -7.0625 19.9375 C-12.83823338 20.54066203 -17.10332625 23.85479125 -21 28 C-21.33 28.99 -21.66 29.98 -22 31 C-22.66 31 -23.32 31 -24 31 C-26.72883233 28.1152344 -27.89184224 26.35197198 -28.2109375 22.36328125 C-27.88005172 15.98066868 -26.77318983 12.30751278 -22 8 C-21.34 8 -20.68 8 -20 8 C-19.566875 7.071875 -19.566875 7.071875 -19.125 6.125 C-17.46203639 2.98384651 -16.30294182 2.11128475 -12.9375 0.875 C-8.63948844 -0.28564447 -4.41885595 -0.18036147 0 0 Z " fill="#B36A30" transform="translate(29,2)"/>
<path d="M0 0 C3.54581059 1.8662161 5.6710856 3.1340672 7 7 C7 7.99 7 8.98 7 10 C6.360625 10.5775 5.72125 11.155 5.0625 11.75 C2.34947377 14.70966498 2.30191697 17.07507941 2 21 C2.66 21 3.32 21 4 21 C4.36666667 26.5 4.36666667 26.5 2.625 28.875 C1 30 1 30 -1 30 C-1 31.98 -1 33.96 -1 36 C-1.61875 36.04125 -2.2375 36.0825 -2.875 36.125 C-3.57625 36.41375 -4.2775 36.7025 -5 37 C-6.18335395 39.88318775 -6.18335395 39.88318775 -7 43 C-7.66 43.99 -8.32 44.98 -9 46 C-11.3828125 46.29296875 -11.3828125 46.29296875 -14.125 46.1875 C-15.49011719 46.14689453 -15.49011719 46.14689453 -16.8828125 46.10546875 C-17.58148438 46.07066406 -18.28015625 46.03585938 -19 46 C-19.33773437 45.18015625 -19.67546875 44.3603125 -20.0234375 43.515625 C-20.46945313 42.43796875 -20.91546875 41.3603125 -21.375 40.25 C-22.03628906 38.64898437 -22.03628906 38.64898437 -22.7109375 37.015625 C-23.91129743 34.10129655 -23.91129743 34.10129655 -25.15625 31.78125 C-26.25867408 29.45391027 -26.14114216 27.5405588 -26 25 C-25.34 24.67 -24.68 24.34 -24 24 C-23.34 27.96 -22.68 31.92 -22 36 C-20.68 36 -19.36 36 -18 36 C-17.67 33.69 -17.34 31.38 -17 29 C-16.34 29 -15.68 29 -15 29 C-14.67 27.68 -14.34 26.36 -14 25 C-14.66 25 -15.32 25 -16 25 C-14.88273561 21.64820682 -14.04550033 20.98292595 -11.375 18.8125 C-3.91892034 12.95081569 -3.91892034 12.95081569 0.43359375 4.9375 C0.48511792 2.8142495 0.48511792 2.8142495 0 0 Z " fill="#583A23" transform="translate(52,27)"/>
<path d="M0 0 C3.75600599 2.0734213 6.58001113 4.36164626 9.5625 7.4375 C10.30628906 8.19933594 11.05007812 8.96117187 11.81640625 9.74609375 C13.25235697 11.22828259 14.68350172 12.71514532 16.109375 14.20703125 C17.96468242 16.15678372 17.96468242 16.15678372 20.6875 17.25 C23 19 23 19 23.5390625 20.96484375 C23.78541343 22.96732486 23.90089465 24.98485795 24 27 C22.35 26.67 20.7 26.34 19 26 C19 24.68 19 23.36 19 22 C17.68 22.33 16.36 22.66 15 23 C15.99 23.66 16.98 24.32 18 25 C17.19175781 25.79664062 16.38351563 26.59328125 15.55078125 27.4140625 C14.47121829 28.48423795 13.39179887 29.55455821 12.3125 30.625 C11.78205078 31.14707031 11.25160156 31.66914062 10.70507812 32.20703125 C7.24349806 35.64737462 4.07058135 39.2059236 1 43 C0.34 41.68 -0.32 40.36 -1 39 C-0.06409496 37.8944811 0.87379858 36.79064547 1.8125 35.6875 C2.59560547 34.76517578 2.59560547 34.76517578 3.39453125 33.82421875 C5 32 5 32 6.65625 30.46875 C8.68533469 28.25091324 8.67656727 25.9108946 9 23 C8.40574219 22.74347656 7.81148437 22.48695312 7.19921875 22.22265625 C4.80853674 20.89355595 3.56848969 19.51433719 1.8125 17.4375 C-1.65555858 13.80357775 -4.34461492 13.16205986 -9.27734375 12.97265625 C-10.13005859 12.98619141 -10.13005859 12.98619141 -11 13 C-9.46356148 9.31930113 -7.21849055 7.01224796 -4.375 4.25 C-3.55773437 3.45078125 -2.74046875 2.6515625 -1.8984375 1.828125 C-0.95871094 0.92320312 -0.95871094 0.92320312 0 0 Z " fill="#17454F" transform="translate(29,7)"/>
<path d="M0 0 C0 0.99 0 1.98 0 3 C0.495 3.495 0.99 3.99 1.5 4.5 C1.995 4.995 2.49 5.49 3 6 C3 9.90838866 1.49432124 11.11594107 -1 14 C0.9490625 13.7215625 0.9490625 13.7215625 2.9375 13.4375 C6.43323406 13.3932502 7.73005446 13.79004236 10.53125 15.96875 C12.10930753 17.58779604 13.6517762 19.24247794 15.15234375 20.93359375 C16.8351854 23.07120631 16.8351854 23.07120631 19 24 C18.505 25.485 18.505 25.485 18 27 C17.39414062 26.278125 16.78828125 25.55625 16.1640625 24.8125 C10.65220756 18.40737453 10.65220756 18.40737453 2.9375 15.9375 C-2.83823338 16.54066203 -7.10332625 19.85479125 -11 24 C-11.33 24.99 -11.66 25.98 -12 27 C-12.66 27 -13.32 27 -14 27 C-16.72883233 24.1152344 -17.89184224 22.35197198 -18.2109375 18.36328125 C-17.88005172 11.98066868 -16.77318983 8.30751278 -12 4 C-11.34 4 -10.68 4 -10 4 C-9.67 3.01 -9.34 2.02 -9 1 C-5.8035914 -0.06546953 -3.34252724 -0.07427838 0 0 Z " fill="#D47D1C" transform="translate(19,6)"/>
<path d="M0 0 C0.33 0 0.66 0 1 0 C1.66 3.96 2.32 7.92 3 12 C4.32 12 5.64 12 7 12 C7.33 9.69 7.66 7.38 8 5 C8.66 5 9.32 5 10 5 C10.33 4.01 10.66 3.02 11 2 C12.66666667 3.66666667 14.33333333 5.33333333 16 7 C16.598125 7.556875 17.19625 8.11375 17.8125 8.6875 C19 10 19 10 19 12 C19.99 11.67 20.98 11.34 22 11 C21.67 9.02 21.34 7.04 21 5 C23.31 4.34 25.62 3.68 28 3 C27.01 4.485 27.01 4.485 26 6 C25.34 6 24.68 6 24 6 C24 7.98 24 9.96 24 12 C23.38125 12.04125 22.7625 12.0825 22.125 12.125 C21.42375 12.41375 20.7225 12.7025 20 13 C18.81664605 15.88318775 18.81664605 15.88318775 18 19 C17.34 19.99 16.68 20.98 16 22 C13.6171875 22.29296875 13.6171875 22.29296875 10.875 22.1875 C9.96492188 22.16042969 9.05484375 22.13335937 8.1171875 22.10546875 C7.41851562 22.07066406 6.71984375 22.03585938 6 22 C5.66226563 21.18015625 5.32453125 20.3603125 4.9765625 19.515625 C4.53054687 18.43796875 4.08453125 17.3603125 3.625 16.25 C3.18414063 15.18265625 2.74328125 14.1153125 2.2890625 13.015625 C1.531868 11.24424878 0.73433548 9.48758267 -0.15234375 7.77734375 C-1.27322195 5.42711527 -1.20828484 3.56884642 -1 1 C-0.67 0.67 -0.34 0.34 0 0 Z " fill="#9E673E" transform="translate(27,51)"/>
<path d="M0 0 C0 1.32 0 2.64 0 4 C1.32 4.33 2.64 4.66 4 5 C2.40490081 8.99246719 -0.40417633 11.63200086 -3.4375 14.5625 C-3.92798828 15.04396484 -4.41847656 15.52542969 -4.92382812 16.02148438 C-6.27911665 17.35116691 -7.63938123 18.67577222 -9 20 C-10.00211639 20.99787912 -11.00338407 21.99662735 -12 23 C-11.34 23 -10.68 23 -10 23 C-10.33 24.32 -10.66 25.64 -11 27 C-11.66 27 -12.32 27 -13 27 C-13 29.64 -13 32.28 -13 35 C-15.375 34.8125 -15.375 34.8125 -18 34 C-20.39310006 30.12545705 -20.5842419 26.44748487 -20 22 C-17.8871002 18.90277891 -15.29897923 16.36542494 -12.625 13.75 C-11.2407262 12.35040213 -9.85785356 10.94941669 -8.4765625 9.546875 C-7.85861816 8.93682617 -7.24067383 8.32677734 -6.60400391 7.69824219 C-4.80333832 5.8870771 -4.80333832 5.8870771 -3 3 C-3.33 2.34 -3.66 1.68 -4 1 C-2 0 -2 0 0 0 Z " fill="#123942" transform="translate(48,29)"/>
<path d="M0 0 C5.13859917 2.56929958 9.39408714 6.5619534 13 11 C13 11.99 13 12.98 13 14 C11.68 14 10.36 14 9 14 C8.67 13.34 8.34 12.68 8 12 C5.02934491 12.34227572 5.02934491 12.34227572 2 13 C1.67 13.66 1.34 14.32 1 15 C0.34 14.01 -0.32 13.02 -1 12 C-3.20725073 11.63637182 -3.20725073 11.63637182 -5.625 11.8125 C-6.44226563 11.83957031 -7.25953125 11.86664063 -8.1015625 11.89453125 C-8.72804688 11.92933594 -9.35453125 11.96414062 -10 12 C-8.52278578 8.54798361 -6.56205999 6.35038064 -3.875 3.75 C-3.15054687 3.04359375 -2.42609375 2.3371875 -1.6796875 1.609375 C-1.12539063 1.07828125 -0.57109375 0.5471875 0 0 Z " fill="#2DA6B6" transform="translate(29,7)"/>
<path d="M0 0 C4.5882822 1.60992358 7.88312156 4.12491753 11.5625 7.25 C10.86072123 10.48486594 10.19773506 12.14181195 7.5625 14.25 C6.9025 14.25 6.2425 14.25 5.5625 14.25 C5.5625 12.6 5.5625 10.95 5.5625 9.25 C4.2425 9.25 2.9225 9.25 1.5625 9.25 C1.5625 8.59 1.5625 7.93 1.5625 7.25 C-2.3975 7.91 -6.3575 8.57 -10.4375 9.25 C-10.4375 6.25 -10.4375 6.25 -9.15234375 4.609375 C-6.0129515 1.76667256 -4.32625104 0.31463644 0 0 Z " fill="#23555C" transform="translate(19.4375,24.75)"/>
<path d="M0 0 C0 1.32 0 2.64 0 4 C0.598125 4.103125 1.19625 4.20625 1.8125 4.3125 C4.28243264 5.08876455 5.32251235 6.07088921 7 8 C4.61435923 7.42415568 2.33317216 6.77772405 0 6 C-1.67580052 6.97207035 -1.67580052 6.97207035 -3.1875 8.4375 C-4.115625 9.283125 -5.04375 10.12875 -6 11 C-8.4375 10.1875 -8.4375 10.1875 -11 9 C-11.33 8.01 -11.66 7.02 -12 6 C-11.67 5.67 -11.34 5.34 -11 5 C-13.31 5 -15.62 5 -18 5 C-15.83230846 1.7484627 -14.76050185 1.27786545 -11.0859375 0.33984375 C-7.39789456 -0.26101718 -3.72329555 -0.15197125 0 0 Z " fill="#CED2AF" transform="translate(29,2)"/>
<path d="M0 0 C0.33 0 0.66 0 1 0 C1.66 3.96 2.32 7.92 3 12 C4.32 12 5.64 12 7 12 C7.33 9.69 7.66 7.38 8 5 C8.66 5 9.32 5 10 5 C10.33 4.34 10.66 3.68 11 3 C10.87625 4.216875 10.7525 5.43375 10.625 6.6875 C10.5969832 9.32574838 10.60828948 10.53842298 12.3359375 12.57421875 C13.85571392 13.76221299 15.42588673 14.8850031 17 16 C17 16.66 17 17.32 17 18 C13.91111478 20.05925681 13.29064073 20.2390374 9.8125 20.125 C8.554375 20.08375 7.29625 20.0425 6 20 C6 19.01 6 18.02 6 17 C5.34 17 4.68 17 4 17 C3.15488176 15.27656245 2.32436646 13.54595947 1.5 11.8125 C1.0359375 10.84957031 0.571875 9.88664062 0.09375 8.89453125 C-1.0015641 5.99586073 -1.30466556 4.06297696 -1 1 C-0.67 0.67 -0.34 0.34 0 0 Z " fill="#7F3D2E" transform="translate(27,51)"/>
<path d="M0 0 C2.64752004 2.57784846 4.94432065 4.91648098 7 8 C6.360625 8.309375 5.72125 8.61875 5.0625 8.9375 C3.06389179 9.8345163 3.06389179 9.8345163 2 11 C2.28604898 12.67542976 2.61781233 14.34385343 3 16 C1.68 16.33 0.36 16.66 -1 17 C-2.98 14.69 -4.96 12.38 -7 10 C-4.98127747 5.96255494 -2.91899872 3.37989325 0 0 Z " fill="#60170C" transform="translate(47,46)"/>
<path d="M0 0 C4.29 0 8.58 0 13 0 C13.061875 0.99 13.12375 1.98 13.1875 3 C13.73285215 7.1278963 15.63113958 9.87726461 18.0390625 13.203125 C18.35617188 13.79609375 18.67328125 14.3890625 19 15 C18.67 15.99 18.34 16.98 18 18 C15.9265976 15.9265976 13.8565494 13.85245081 11.8125 11.75 C8.58170327 8.59099875 5.20487435 5.63294152 1.79296875 2.671875 C1.20128906 2.12015625 0.60960937 1.5684375 0 1 C0 0.67 0 0.34 0 0 Z " fill="#D3CA91" transform="translate(37,7)"/>
<path d="M0 0 C0.33 0.99 0.66 1.98 1 3 C-1.95207881 7.15136082 -5.3792669 10.3037301 -9.28515625 13.54296875 C-11.66717958 15.56687468 -13.82386432 17.75792081 -16 20 C-16.99 19.01 -17.98 18.02 -19 17 C-17.87563746 13.62691239 -16.92657267 12.84876903 -14.25 10.625 C-11.78737344 8.54866781 -9.54441452 6.5232245 -7.3125 4.1875 C-4.94274003 1.94583517 -3.08685613 0.97015478 0 0 Z " fill="#67522D" transform="translate(55,35)"/>
<path d="M0 0 C-4.59474404 5.39882424 -9.27676273 10.71333087 -14 16 C-15.69413227 13.05755973 -16.07153263 12.35766316 -15.375 8.875 C-13.84431971 5.67448667 -13.13341808 5.31401403 -10 4 C-9.67 3.01 -9.34 2.02 -9 1 C-5.8035914 -0.06546953 -3.34252724 -0.07427838 0 0 Z " fill="#519892" transform="translate(19,6)"/>
<path d="M0 0 C0.515625 0.37125 1.03125 0.7425 1.5625 1.125 C5.12352451 2.40331649 7.5174232 1.20550735 11 0 C12 1 12 1 12.37109375 3.25390625 C11.72341342 8.04674069 7.75629867 10.32176587 4.28515625 13.40234375 C1.68952013 16.35293865 1.26436352 18.13579285 1 22 C0.67 22 0.34 22 0 22 C-0.602537 15.97463002 -0.602537 15.97463002 1.11328125 13.19921875 C2.34621853 11.74400545 3.66808933 10.36520843 5 9 C4.34 8.67 3.68 8.34 3 8 C2.31867549 6.33927151 1.65257873 4.672233 1 3 C0.34 2.34 -0.32 1.68 -1 1 C-0.67 0.67 -0.34 0.34 0 0 Z " fill="#996B3C" transform="translate(54,26)"/>
<path d="M0 0 C0.33 0.66 0.66 1.32 1 2 C3.64 1.34 6.28 0.68 9 0 C3.52509066 6.510703 -2.23223578 12.74987827 -8 19 C-8.66 17.68 -9.32 16.36 -10 15 C-9.06409496 13.8944811 -8.12620142 12.79064547 -7.1875 11.6875 C-6.66542969 11.07261719 -6.14335937 10.45773438 -5.60546875 9.82421875 C-4 8 -4 8 -2.34375 6.4375 C-0.50050981 4.46566165 -0.3545381 2.62358193 0 0 Z " fill="#134B55" transform="translate(38,31)"/>
<path d="M0 0 C2.78029992 0.87745245 3.61818275 2.24305908 5.12890625 4.671875 C4.79890625 5.331875 4.46890625 5.991875 4.12890625 6.671875 C3.13890625 6.341875 2.14890625 6.011875 1.12890625 5.671875 C1.45890625 4.681875 1.78890625 3.691875 2.12890625 2.671875 C1.13890625 2.671875 0.14890625 2.671875 -0.87109375 2.671875 C-1.20109375 3.661875 -1.53109375 4.651875 -1.87109375 5.671875 C-2.88171875 5.383125 -3.89234375 5.094375 -4.93359375 4.796875 C-9.26209237 4.65946235 -9.72884746 4.92559609 -12.80859375 7.609375 C-13.84753066 8.61177786 -14.87477454 9.62710258 -15.87109375 10.671875 C-15.54109375 11.001875 -15.21109375 11.331875 -14.87109375 11.671875 C-12.95684918 11.5700379 -12.95684918 11.5700379 -10.80859375 11.234375 C-8.85953125 10.9559375 -8.85953125 10.9559375 -6.87109375 10.671875 C-7.93359375 12.171875 -7.93359375 12.171875 -9.87109375 13.671875 C-13.55859375 13.859375 -13.55859375 13.859375 -16.87109375 13.671875 C-17.20109375 12.021875 -17.53109375 10.371875 -17.87109375 8.671875 C-12.21046518 3.27621202 -8.02832966 -0.25773129 0 0 Z " fill="#7A5A44" transform="translate(24.87109375,21.328125)"/>
<path d="M0 0 C0 0.66 0 1.32 0 2 C1.9490625 1.7215625 1.9490625 1.7215625 3.9375 1.4375 C7.43323406 1.3932502 8.73005446 1.79004236 11.53125 3.96875 C13.10930753 5.58779604 14.6517762 7.24247794 16.15234375 8.93359375 C17.8351854 11.07120631 17.8351854 11.07120631 20 12 C19.67 12.99 19.34 13.98 19 15 C18.39414062 14.278125 17.78828125 13.55625 17.1640625 12.8125 C12.49534446 7.43806323 12.49534446 7.43806323 6.35546875 4.16015625 C0.14799025 3.92177382 -3.40087852 6.00076393 -8 10 C-7.505 9.0409375 -7.505 9.0409375 -7 8.0625 C-5.92728775 6.23205433 -5.92728775 6.23205433 -6 5 C-6.66 4.67 -7.32 4.34 -8 4 C-4.5 0 -4.5 0 0 0 Z " fill="#BC7F2C" transform="translate(18,18)"/>
<path d="M0 0 C0 1.32 0 2.64 0 4 C1.32 4.33 2.64 4.66 4 5 C2.46781315 8.63061667 0.2816856 10.9863773 -2.5 13.75 C-3.69109375 14.94882812 -3.69109375 14.94882812 -4.90625 16.171875 C-7 18 -7 18 -9 18 C-8.1875 16.0625 -8.1875 16.0625 -7 14 C-6.01 13.67 -5.02 13.34 -4 13 C-4 12.01 -4 11.02 -4 10 C-4.66 9.67 -5.32 9.34 -6 9 C-4.68 7.02 -3.36 5.04 -2 3 C-2.66 3 -3.32 3 -4 3 C-4 2.34 -4 1.68 -4 1 C-2 0 -2 0 0 0 Z " fill="#113D46" transform="translate(48,29)"/>
<path d="M0 0 C3.63 0 7.26 0 11 0 C11.33 0.99 11.66 1.98 12 3 C13.32 2.67 14.64 2.34 16 2 C16 2.99 16 3.98 16 5 C17.52329028 6.2315964 19.04866 7.46105092 20.59765625 8.66015625 C22.58010118 10.55424709 22.84692284 12.32114968 23 15 C21 15 21 15 18.8125 12.9375 C17.28583236 11.38412681 15.83916761 9.80948782 14.43359375 8.14453125 C11.17819237 4.48126055 9.04366962 2.60206154 4.0625 2.0625 C2.70917036 2.01053576 1.35415633 1.97850546 0 2 C0 1.34 0 0.68 0 0 Z " fill="#228388" transform="translate(18,18)"/>
<path d="M0 0 C1.66666667 1.66666667 3.33333333 3.33333333 5 5 C5.61875 5.515625 6.2375 6.03125 6.875 6.5625 C8 8 8 8 7.8125 10.0625 C7 12 7 12 5 14 C0.68393782 11.26943005 0.68393782 11.26943005 -1 9 C-1.23574867 5.86716216 -0.72936048 3.04342235 0 0 Z " fill="#A8551A" transform="translate(38,53)"/>
<path d="M0 0 C2.62901288 1.52206009 4.84365964 2.84365964 7 5 C6.67 5.99 6.34 6.98 6 8 C5.34 8 4.68 8 4 8 C3.1028125 8.3403125 3.1028125 8.3403125 2.1875 8.6875 C-0.96037796 9.13719685 -2.4644907 7.76077035 -5 6 C-3.35 4.02 -1.7 2.04 0 0 Z " fill="#2BB9C5" transform="translate(29,7)"/>
<path d="M0 0 C1.2684375 0.433125 1.2684375 0.433125 2.5625 0.875 C1.5725 1.37 1.5725 1.37 0.5625 1.875 C0.2325 2.865 -0.0975 3.855 -0.4375 4.875 C-1.0975 4.875 -1.7575 4.875 -2.4375 4.875 C-2.7675 5.865 -3.0975 6.855 -3.4375 7.875 C-5.7475 8.205 -8.0575 8.535 -10.4375 8.875 C-10.4375 5.875 -10.4375 5.875 -9.1171875 4.234375 C-4.19776119 -0.15264586 -4.19776119 -0.15264586 0 0 Z " fill="#192B32" transform="translate(19.4375,25.125)"/>
<path d="M0 0 C0.99 0.33 1.98 0.66 3 1 C3 1.66 3 2.32 3 3 C4.32 3 5.64 3 7 3 C7.33 2.34 7.66 1.68 8 1 C13.57142857 6.14285714 13.57142857 6.14285714 14 10 C8.33846154 8.52307692 8.33846154 8.52307692 6.625 5.875 C6.41875 5.25625 6.2125 4.6375 6 4 C5.01 4.99 4.02 5.98 3 7 C0 5 0 5 -0.75 2.9375 C-0.8325 2.298125 -0.915 1.65875 -1 1 C-0.67 0.67 -0.34 0.34 0 0 Z " fill="#226369" transform="translate(35,18)"/>
<path d="M0 0 C2.50357861 0.8345262 4.66785852 1.79371992 7 3 C5.84826645 5.46800047 4.95216435 7.04783565 3 9 C1.68 9 0.36 9 -1 9 C-1 8.34 -1 7.68 -1 7 C-1.66 7 -2.32 7 -3 7 C-2.25 2.25 -2.25 2.25 0 0 Z " fill="#D5C05E" transform="translate(16,9)"/>
<path d="M0 0 C0 1.98 0 3.96 0 6 C0.66 6 1.32 6 2 6 C2 7.98 2 9.96 2 12 C-0.95409701 10.62845496 -3.44008376 9.01136276 -6 7 C-5.75 4.625 -5.75 4.625 -5 2 C-1.95238095 0 -1.95238095 0 0 0 Z " fill="#8D3D1C" transform="translate(54,42)"/>
<path d="M0 0 C1.65 0.33 3.3 0.66 5 1 C3.4404735 4.82792868 1.16368164 7.36359864 -2 10 C-4.3125 9.8125 -4.3125 9.8125 -6 9 C-6 8.01 -6 7.02 -6 6 C-4.37064759 4.62131719 -2.70250393 3.28725907 -1 2 C-0.67 1.34 -0.34 0.68 0 0 Z " fill="#5B281A" transform="translate(31,33)"/>
<path d="M0 0 C0 3.98398253 -1.71904014 6.83411926 -4 10 C-4.99 10.66 -5.98 11.32 -7 12 C-7.99 11.01 -8.98 10.02 -10 9 C-8.6562739 4.9688217 -6.54628069 4.19869403 -3 2 C-2.01 1.34 -1.02 0.68 0 0 Z " fill="#634826" transform="translate(46,43)"/>
<path d="M0 0 C4.65372872 3.2869783 8.6291861 6.33271922 12 11 C12.66 11.66 13.32 12.32 14 13 C10.36713972 12.39727545 8.31721095 10.88283984 5.5 8.5625 C2.76018483 6.31528859 0.23483979 4.46302981 -3 3 C-2.01 2.01 -1.02 1.02 0 0 Z " fill="#C38236" transform="translate(37,8)"/>
<path d="M0 0 C1 3 1 3 0.6875 5.375 C1.0613733 8.51553573 1.61208559 8.79170847 4 10.6875 C5.485 11.8321875 5.485 11.8321875 7 13 C7 13.66 7 14.32 7 15 C4.6875 15.25 4.6875 15.25 2 15 C-1.92365547 10.79608343 -2.10451864 7.64400662 -2 2 C-1.34 2 -0.68 2 0 2 C0 1.34 0 0.68 0 0 Z " fill="#751D18" transform="translate(37,54)"/>
<path d="M0 0 C0.99 0 1.98 0 3 0 C2.67 1.32 2.34 2.64 2 4 C1.34 4 0.68 4 0 4 C0 6.64 0 9.28 0 12 C-1.65 11.67 -3.3 11.34 -5 11 C-5.6875 9.1875 -5.6875 9.1875 -6 7 C-4.6875 5.25 -4.6875 5.25 -3 4 C-2.34 4 -1.68 4 -1 4 C-0.67 2.68 -0.34 1.36 0 0 Z " fill="#37182A" transform="translate(35,52)"/>
<path d="M0 0 C0.27714844 0.5671875 0.55429687 1.134375 0.83984375 1.71875 C2.4088548 4.80394344 4.14924876 7.78386135 5.87890625 10.78125 C6.93389964 12.86918118 7.53806617 14.71628221 8 17 C6.65555841 16.09970429 5.32468562 15.17911978 4 14.25 C3.2575 13.73953125 2.515 13.2290625 1.75 12.703125 C1.1725 12.14109375 0.595 11.5790625 0 11 C0 9.68 0 8.36 0 7 C-0.66 6.34 -1.32 5.68 -2 5 C-2 4.01 -2 3.02 -2 2 C-1.34 2 -0.68 2 0 2 C0 1.34 0 0.68 0 0 Z " fill="#C0B987" transform="translate(48,8)"/>
<path d="M0 0 C1.65 0.33 3.3 0.66 5 1 C4.06862408 2.29608947 3.1296434 3.58671632 2.1875 4.875 C1.66542969 5.59429688 1.14335937 6.31359375 0.60546875 7.0546875 C-1 9 -1 9 -4 11 C-4.8125 8.875 -4.8125 8.875 -5 6 C-3.55576519 3.69892439 -1.89127865 1.98353614 0 0 Z " fill="#1D6669" transform="translate(8,11)"/>
<path d="M0 0 C0.66 0.33 1.32 0.66 2 1 C2.33 1.99 2.66 2.98 3 4 C4.62332967 5.38576923 6.28724465 6.72641268 8 8 C7.67 8.99 7.34 9.98 7 11 C4 11 4 11 2.39453125 9.46875 C1.61142578 8.49421875 1.61142578 8.49421875 0.8125 7.5 C0.28269531 6.8503125 -0.24710938 6.200625 -0.79296875 5.53125 C-1.19128906 5.0259375 -1.58960938 4.520625 -2 4 C-1.34 2.68 -0.68 1.36 0 0 Z " fill="#5B100A" transform="translate(42,52)"/>
<path d="M0 0 C-0.37028004 2.68453027 -0.87659065 3.8677757 -2.75 5.875 C-5 7 -5 7 -7.75 6.1875 C-8.4925 5.795625 -9.235 5.40375 -10 5 C-8.34220923 2.29518348 -7.54112366 1.15837766 -4.4375 0.25 C-2 0 -2 0 0 0 Z " fill="#CFCD8A" transform="translate(28,6)"/>
<path d="M0 0 C-2.46153846 4.8 -2.46153846 4.8 -5.1875 5.8125 C-5.785625 5.874375 -6.38375 5.93625 -7 6 C-6.67 5.34 -6.34 4.68 -6 4 C-8.31 4 -10.62 4 -13 4 C-11 1 -11 1 -8.75 0.3125 C-5.80888507 -0.02171761 -2.95762178 -0.0687819 0 0 Z " fill="#B1BF9F" transform="translate(24,3)"/>
<path d="M0 0 C1.01406317 3.04218951 1.66083005 5.81180248 2 9 C1.34 9.66 0.68 10.32 0 11 C0.66 11.78375 1.32 12.5675 2 13.375 C4 16 4 16 4 18 C3.34 18 2.68 18 2 18 C-0.82654675 15.01193629 -1.96624149 13.35034035 -2.0703125 9.1875 C-1.40117521 1.40117521 -1.40117521 1.40117521 0 0 Z " fill="#B1A473" transform="translate(3,15)"/>
<path d="M0 0 C4.6875 3.61328125 4.6875 3.61328125 6 5 C6 5.99 6 6.98 6 8 C4.68 8 3.36 8 2 8 C1.67 7.34 1.34 6.68 1 6 C0.01 6 -0.98 6 -2 6 C-2 4.68 -2 3.36 -2 2 C-1.34 2 -0.68 2 0 2 C0 1.34 0 0.68 0 0 Z " fill="#219EA4" transform="translate(36,13)"/>
<path d="M0 0 C0.33 0.99 0.66 1.98 1 3 C1.66 3 2.32 3 3 3 C1.60667426 6.36720387 0.0210714 7.9859524 -3 10 C-3.33 9.34 -3.66 8.68 -4 8 C-1.48571429 1.48571429 -1.48571429 1.48571429 0 0 Z " fill="#DB9E28" transform="translate(12,13)"/>
<path d="M0 0 C0.66 0.66 1.32 1.32 2 2 C1.625 4.625 1.625 4.625 1 7 C0.01 7 -0.98 7 -2 7 C-2.33 7.66 -2.66 8.32 -3 9 C-3.66 8.01 -4.32 7.02 -5 6 C-3.625 4 -3.625 4 -2 2 C-1.34 2 -0.68 2 0 2 C0 1.34 0 0.68 0 0 Z " fill="#23ABAE" transform="translate(33,13)"/>
<path d="M0 0 C0.3125 2.3125 0.3125 2.3125 0 5 C-2.5 6.8125 -2.5 6.8125 -5 8 C-6 7 -6 7 -6.0625 3.9375 C-6.041875 2.968125 -6.02125 1.99875 -6 1 C-5.67 1.66 -5.34 2.32 -5 3 C-4.360625 2.505 -3.72125 2.01 -3.0625 1.5 C-1 0 -1 0 0 0 Z " fill="#0F1F2B" transform="translate(34,51)"/>
<path d="M0 0 C2 2 2 2 2 5 C0.35 5.33 -1.3 5.66 -3 6 C-3 5.34 -3 4.68 -3 4 C-3.66 3.67 -4.32 3.34 -5 3 C-2.25 0 -2.25 0 0 0 Z " fill="#DEBC45" transform="translate(18,12)"/>
<path d="M0 0 C1.65 0.99 3.3 1.98 5 3 C4.01 4.485 4.01 4.485 3 6 C2.01 5.67 1.02 5.34 0 5 C-0.66 5 -1.32 5 -2 5 C-2.99 5 -3.98 5 -5 5 C-3.35 3.35 -1.7 1.7 0 0 Z " fill="#46C4CA" transform="translate(29,7)"/>
<path d="M0 0 C0 1.98 0 3.96 0 6 C-1.32 6.33 -2.64 6.66 -4 7 C-4.33 5.35 -4.66 3.7 -5 2 C-1.125 0 -1.125 0 0 0 Z " fill="#772611" transform="translate(54,42)"/>
<path d="M0 0 C0 2.66666667 0 5.33333333 0 8 C-2.5 9.6875 -2.5 9.6875 -5 11 C-4.66666667 9.66666667 -4.33333333 8.33333333 -4 7 C-3.87625 6.319375 -3.7525 5.63875 -3.625 4.9375 C-2.88080183 2.63048568 -1.809245 1.57325652 0 0 Z " fill="#0D2E36" transform="translate(44,34)"/>
<path d="M0 0 C1.32 0 2.64 0 4 0 C3.43628586 3.26954202 2.50037734 4.82575883 0 7 C-0.66 6.67 -1.32 6.34 -2 6 C-1.34 4.02 -0.68 2.04 0 0 Z " fill="#10323F" transform="translate(27,32)"/>
<path d="M0 0 C1.98 1.65 3.96 3.3 6 5 C5.01 5.66 4.02 6.32 3 7 C0.84526801 5.4198632 -1.10646634 3.89353366 -3 2 C-2.01 1.34 -1.02 0.68 0 0 Z " fill="#B89167" transform="translate(37,8)"/>
<path d="M0 0 C2.5363613 1.01454452 3.79351461 1.6853556 5.3125 4 C5.539375 4.66 5.76625 5.32 6 6 C5.67 6.66 5.34 7.32 5 8 C2.21611025 6.29374499 1.14615794 5.52373261 0.25 2.3125 C0.1675 1.549375 0.085 0.78625 0 0 Z " fill="#8C1A0A" transform="translate(43,51)"/>
<path d="M0 0 C0.99 0.33 1.98 0.66 3 1 C3 1.66 3 2.32 3 3 C3.99 3.33 4.98 3.66 6 4 C5.01 4.99 4.02 5.98 3 7 C0 5 0 5 -0.75 2.9375 C-0.8325 2.298125 -0.915 1.65875 -1 1 C-0.67 0.67 -0.34 0.34 0 0 Z " fill="#1E5B64" transform="translate(35,18)"/>
<path d="M0 0 C1.29315061 0.95632999 2.58446853 1.91513851 3.875 2.875 C4.59429687 3.40867187 5.31359375 3.94234375 6.0546875 4.4921875 C8 6 8 6 10 8 C9.67 8.99 9.34 9.98 9 11 C9 10.34 9 9.68 9 9 C8.443125 8.773125 7.88625 8.54625 7.3125 8.3125 C4.33840412 6.62449964 2.27991135 4.53323483 0 2 C0 1.34 0 0.68 0 0 Z " fill="#8E6842" transform="translate(36,11)"/>
<path d="M0 0 C0.66 0.33 1.32 0.66 2 1 C0.02 1.99 0.02 1.99 -2 3 C-2 4.98 -2 6.96 -2 9 C-2.99 9 -3.98 9 -5 9 C-4.67 8.01 -4.34 7.02 -4 6 C-4.38932856 3.85744207 -4.38932856 3.85744207 -5 2 C-2.625 0.9375 -2.625 0.9375 0 0 Z " fill="#A88C5E" transform="translate(53,54)"/>
<path d="M0 0 C2.5 2.3125 2.5 2.3125 5 5 C5 5.99 5 6.98 5 8 C1.125 6.125 1.125 6.125 0 5 C-0.04063832 3.33382885 -0.042721 1.66611905 0 0 Z " fill="#B47124" transform="translate(38,53)"/>
<path d="M0 0 C1.485 0.99 1.485 0.99 3 2 C4.32 1.34 5.64 0.68 7 0 C4.25 4.875 4.25 4.875 2 6 C1.01 5.01 0.02 4.02 -1 3 C-0.67 2.01 -0.34 1.02 0 0 Z " fill="#5D3218" transform="translate(37,49)"/>
<path d="M0 0 C1.9375 0.5 1.9375 0.5 4 2 C4.68790422 4.69658452 4.81946464 7.2017019 5 10 C3.35 9.67 1.7 9.34 0 9 C0.99 8.67 1.98 8.34 3 8 C3 6.68 3 5.36 3 4 C2.34 4 1.68 4 1 4 C0.67 2.68 0.34 1.36 0 0 Z " fill="#264D4D" transform="translate(48,24)"/>
<path d="M0 0 C0.66 0.99 1.32 1.98 2 3 C-0.97 5.475 -0.97 5.475 -4 8 C-3.50168276 4.31245243 -2.89932357 2.39509338 0 0 Z " fill="#132E37" transform="translate(38,45)"/>
<path d="M0 0 C0.33 0.66 0.66 1.32 1 2 C-0.65 3.98 -2.3 5.96 -4 8 C-4.33 6.68 -4.66 5.36 -5 4 C-3.35 2.68 -1.7 1.36 0 0 Z " fill="#106069" transform="translate(34,42)"/>
<path d="M0 0 C0.928125 0.2784375 0.928125 0.2784375 1.875 0.5625 C4.04160178 1.23686176 4.04160178 1.23686176 6 0 C6.33 1.32 6.66 2.64 7 4 C6.01 4.66 5.02 5.32 4 6 C2.68 4.02 1.36 2.04 0 0 Z " fill="#CA6918" transform="translate(2,25)"/>
<path d="M0 0 C-0.66 1.98 -1.32 3.96 -2 6 C-3.32 5.01 -4.64 4.02 -6 3 C-3.375 0 -3.375 0 0 0 Z " fill="#EBDC80" transform="translate(24,7)"/>
<path d="M0 0 C2.97 1.98 2.97 1.98 6 4 C5.67 4.99 5.34 5.98 5 7 C2.5 5.75 2.5 5.75 0 4 C0 2.68 0 1.36 0 0 Z " fill="#B8551A" transform="translate(46,19)"/>
<path d="M0 0 C3.68754757 0.49831724 5.60490662 1.10067643 8 4 C7.67 4.99 7.34 5.98 7 7 C4.66666667 4.66666667 2.33333333 2.33333333 0 0 Z " fill="#BBA970" transform="translate(48,18)"/>
<path d="M0 0 C0.66 0.66 1.32 1.32 2 2 C0.37660195 3.70884005 -1.29319053 5.37446717 -3 7 C-3.66 7 -4.32 7 -5 7 C-4.1875 5.0625 -4.1875 5.0625 -3 3 C-2.01 2.67 -1.02 2.34 0 2 C0 1.34 0 0.68 0 0 Z " fill="#1D3A3C" transform="translate(44,40)"/>
<path d="M0 0 C0.99 0.33 1.98 0.66 3 1 C3.33 1.99 3.66 2.98 4 4 C2.35 4.33 0.7 4.66 -1 5 C-0.67 3.35 -0.34 1.7 0 0 Z " fill="#28797B" transform="translate(42,19)"/>
<path d="M0 0 C0.99 0 1.98 0 3 0 C1.63016497 3.16115776 1.0109362 3.9927092 -2 6 C-1.125 1.125 -1.125 1.125 0 0 Z " fill="#145157" transform="translate(6,16)"/>
</svg>
